<?xml version="1.0" encoding="UTF-8"?><svg id="a" xmlns="http://www.w3.org/2000/svg" viewBox="0 0 289.04 78.69"><defs><style>.b{fill:#fff;}.c{fill:#232323;}.d{fill:#d4102f;}</style></defs><path class="d" d="M9.97,0C4.46,0,0,4.46,0,9.97v68.72h103.07V0H9.97Z"/><path class="c" d="M275.24,0H102.09v78.69h176.98c5.51,0,9.97-4.46,9.97-9.97V0h-13.8Z"/><path class="b" d="M13.8,59.32V19.37c0-.41.29-.71.71-.71h13.18c8.45,0,14.07,4.91,14.07,12.29v16.79c0,7.39-5.62,12.29-14.07,12.29h-13.18c-.41,0-.71-.3-.71-.71M23.91,51.64l3.84-.06c2.42,0,4.08-1.95,4.2-5.02v-14.48c0-3.01-1.65-5.02-4.25-5.02h-3.78c-.18,0-.3.12-.3.3v24c0,.18.12.3.3.3"/><path class="b" d="M45.6,39.34c0-3.01,2.13-5.14,5.08-5.14s5.14,2.13,5.14,5.14-2.19,5.14-5.14,5.14-5.08-2.19-5.08-5.14"/><path class="b" d="M60.02,47.03v-15.48c0-8.1,5.61-13.36,14.13-13.36s14.13,5.08,14.13,13v.24c0,.41-.3.77-.71.77l-8.39.35c-.47,0-.71-.18-.71-.65v-.83c0-2.66-1.71-4.49-4.32-4.49s-4.31,1.83-4.31,4.49v16.55c0,2.66,1.71,4.49,4.31,4.49s4.32-1.83,4.32-4.49v-.83c0-.47.24-.65.71-.65l8.39.35c.41,0,.71.35.71.77v.12c0,7.92-5.61,13.12-14.13,13.12s-14.13-5.32-14.13-13.48"/><path class="b" d="M143.22,19.37v7.03c0,.41-.3.71-.71.71h-8.87c-.18,0-.3.12-.3.29v31.92c0,.41-.29.71-.71.71h-8.39c-.41,0-.71-.3-.71-.71v-31.92c0-.18-.12-.29-.29-.29h-8.51c-.41,0-.71-.3-.71-.71v-7.03c0-.41.3-.71.71-.71h27.78c.41,0,.71.3.71.71"/><path class="b" d="M172.58,27.05h-15.19c-.18,0-.29.12-.29.3v7.39c0,.18.12.29.29.29h9.16c.41,0,.71.3.71.71v6.97c0,.41-.29.71-.71.71h-9.16c-.18,0-.29.12-.29.3v7.62c0,.18.12.3.29.3h15.19c.41,0,.71.3.71.71v6.97c0,.41-.3.71-.71.71h-24.59c-.41,0-.71-.3-.71-.71V19.37c0-.41.29-.71.71-.71h24.59c.41,0,.71.29.71.71v6.97c0,.41-.3.71-.71.71"/><path class="b" d="M195.87,59.44l-5.56-15.66c-.06-.12-.12-.24-.3-.24h-2.36c-.18,0-.29.12-.29.29v15.49c0,.41-.3.71-.71.71h-8.39c-.41,0-.71-.3-.71-.71V19.37c0-.41.3-.71.71-.71h15.13c7.39,0,12.35,5.2,12.35,12.83,0,4.96-2.25,8.81-6.03,10.7-.18.06-.18.18-.12.35l6.44,16.67c.06.12.06.24.06.3,0,.35-.24.53-.65.53h-8.81c-.41,0-.65-.24-.77-.59M187.35,27.35v8.39c0,.18.12.3.29.3h4.08c2.54,0,4.26-1.66,4.26-4.43s-1.71-4.55-4.26-4.55h-4.08c-.18,0-.29.12-.29.29"/><path class="b" d="M228.77,59.44l-5.56-15.66c-.06-.12-.12-.24-.3-.24h-2.36c-.18,0-.3.12-.3.29v15.49c0,.41-.3.71-.71.71h-8.39c-.41,0-.71-.3-.71-.71V19.37c0-.41.3-.71.71-.71h15.13c7.39,0,12.35,5.2,12.35,12.83,0,4.96-2.25,8.81-6.03,10.7-.18.06-.18.18-.12.35l6.44,16.67c.06.12.06.24.06.3,0,.35-.24.53-.65.53h-8.81c-.41,0-.65-.24-.77-.59M220.26,27.35v8.39c0,.18.12.3.3.3h4.08c2.54,0,4.26-1.66,4.26-4.43s-1.71-4.55-4.26-4.55h-4.08c-.18,0-.3.12-.3.29"/><path class="b" d="M265.02,59.38l-1.18-5.2c-.06-.18-.12-.24-.3-.24h-9.99c-.18,0-.24.06-.3.24l-1.18,5.2c-.06.41-.36.65-.77.65h-8.69c-.47,0-.71-.24-.59-.77l10.58-40.01c.12-.41.41-.59.83-.59h10.34c.41,0,.71.18.83.59l10.58,40.01c0,.12.06.18.06.24,0,.35-.24.53-.65.53h-8.81c-.41,0-.71-.24-.77-.65M255.32,46.38h6.32c.18,0,.36-.12.3-.35l-3.31-14.66c-.06-.3-.3-.3-.36,0l-3.25,14.72c-.06.24.12.3.3.3"/></svg>